<svg width="23" height="23" viewBox="0 0 23 23" fill="none" xmlns="http://www.w3.org/2000/svg">
<path d="M4.7915 16.2917H3.83317C3.32484 16.2917 2.83733 16.0897 2.47788 15.7303C2.11844 15.3708 1.9165 14.8833 1.9165 14.375V4.79167C1.9165 4.28334 2.11844 3.79582 2.47788 3.43638C2.83733 3.07693 3.32484 2.875 3.83317 2.875H19.1665C19.6748 2.875 20.1623 3.07693 20.5218 3.43638C20.8812 3.79582 21.0832 4.28334 21.0832 4.79167V14.375C21.0832 14.8833 20.8812 15.3708 20.5218 15.7303C20.1623 16.0897 19.6748 16.2917 19.1665 16.2917H18.2082M11.4998 14.375L16.2915 20.125H6.70817L11.4998 14.375Z" stroke="#275C9D" stroke-width="2" stroke-linecap="round" stroke-linejoin="round"/>
</svg>
