<svg width="22" height="22" viewBox="0 0 22 22" fill="none" xmlns="http://www.w3.org/2000/svg">
<path d="M6.41667 10.0835V6.41683C6.41667 5.20125 6.89955 4.03547 7.75909 3.17592C8.61864 2.31638 9.78442 1.8335 11 1.8335C12.2156 1.8335 13.3814 2.31638 14.2409 3.17592C15.1004 4.03547 15.5833 5.20125 15.5833 6.41683V10.0835M4.58333 10.0835H17.4167C18.4292 10.0835 19.25 10.9043 19.25 11.9168V18.3335C19.25 19.346 18.4292 20.1668 17.4167 20.1668H4.58333C3.57081 20.1668 2.75 19.346 2.75 18.3335V11.9168C2.75 10.9043 3.57081 10.0835 4.58333 10.0835Z" stroke="#97949A" stroke-width="1.5" stroke-linecap="round" stroke-linejoin="round"/>
</svg>
